# xmcd
#
# Track frame offsets:
#	150
#	12142
#	22274
#	32570
#	43727
#	54972
#	65824
#	76295
#	85744
#	94758
#	104853
#	116327
#	125647
#	135755
#	144987
#	155085
#	169172
#	180729
#	193878
#	204156
#	212629
#	223022
#	234140
#	244495
#	256041
#	267009
#	275868
#
# Disc length: 3811 seconds
#
# Revision: 0
# Processed by: cddbd v1.4PL0 Copyright (c) Steve Scherf et al.
# Submitted via: EasyCDDAExtractor 4.6.0.1
#
DISCID=840ee11b
DTITLE=Various Artist - The Best Of Ivy and Hanover Records
DYEAR=2002
DGENRE=Blues
TTITLE0=Deltairs - Lullabye Of The Bells
TTITLE1=Deltairs - It's Only You Dear
TTITLE2=Five Letters - Your First Love
TTITLE3=Five Leters - Hold My Baby
TTITLE4=Vanguards - Moonlight
TTITLE5=Vanguards - I'm Movin'
TTITLE6=Volumes (Jimmy Lewis and the) - In My Heart
TTITLE7=Volumes (Jimmy Lewis and the) - I Saw A Cottage In My Dreams
TTITLE8=Deltairs - Standing At The Altar
TTITLE9=Deltairs - I Might Like It
TTITLE10=Ivies - Sunshine
TTITLE11=Ivies - Come On
TTITLE12=Unique Teens - Jeannie
TTITLE13=Unique Teens - At The Ball
TTITLE14=Kids From Texas - Long Legged Linda
TTITLE15=Kids From Texas - I'm So Lonely
TTITLE16=Lucien Farrar - When We First Met
TTITLE17=Lucien Farrar - Did You Kiss Me Goodbye
TTITLE18=Unique Teens - Jeannie (alt)
TTITLE19=Unique Teens - At The Ball (alt)
TTITLE20=Clarence Paul - I'll Be At Your Side
TTITLE21=Clarence Paul - I Need Your Lovin'
TTITLE22=Laura Leslie - It's Eternal
TTITLE23=Jimmy Steward - Crazy Dream
TTITLE24=Bells (Terry and the) - Alone Because I Love You
TTITLE25=Flourescents - The Facts Of Love
TTITLE26=Flourescents - Shoopy-Pop-A-Doo
EXTD=
EXTT0=
EXTT1=
EXTT2=
EXTT3=
EXTT4=
EXTT5=
EXTT6=
EXTT7=
EXTT8=
EXTT9=
EXTT10=
EXTT11=
EXTT12=
EXTT13=
EXTT14=
EXTT15=
EXTT16=
EXTT17=
EXTT18=
EXTT19=
EXTT20=
EXTT21=
EXTT22=
EXTT23=
EXTT24=
EXTT25=
EXTT26=
PLAYORDER=
